<svg xmlns="http://www.w3.org/2000/svg" viewBox="0 0 800 400" role="img" aria-label="Illustration livres">
  <defs>
    <linearGradient id="bg" x1="0%" y1="0%" x2="100%" y2="100%">
      <stop offset="0%" style="stop-color:#1e3a5f"/>
      <stop offset="100%" style="stop-color:#2d5a87"/>
    </linearGradient>
  </defs>
  <rect width="800" height="400" fill="url(#bg)"/>
  <g fill="none" stroke="#e8eef4" stroke-width="6" stroke-linecap="round" opacity="0.9">
    <path d="M200 120v200M200 120c40-30 100-30 140 0v200c-40-30-100-30-140 0"/>
    <path d="M380 100v220M380 100c45-35 110-35 155 0v220c-45-35-110-35-155 0"/>
    <path d="M560 130v190M560 130c35-25 85-25 120 0v190c-35-25-85-25-120 0"/>
  </g>
  <text x="400" y="360" text-anchor="middle" fill="#a8c4e0" font-family="system-ui,sans-serif" font-size="18">PlagGuard</text>
</svg>
